# xmcd CD database file
#
# Track frame offsets:
#	150
#	22142
#	36682
#	50002
#	66527
#	84642
#	97425
#	115405
#	126852
#	139280
#	154800
#	173075
#
# Disc length: 2509 seconds
#
# Revision: 0
# Processed by: cddbd v1.5PL3 Copyright (c) Steve Scherf et al.
# Submitted via: CDex 1.51
#
DISCID=c009cb0c
DTITLE=TOMEU PENYA__AL DESCOBERT - AL DESCOBERT
DYEAR=1998
DGENRE=Country
TTITLE0=CRIS
TTITLE1=D'UNA GATERA ME VAIG CASAR
TTITLE2=ES GUANYAR FA RIURE
TTITLE3=SANTA BARBARA
TTITLE4=UN TASSO DE SUC
TTITLE5=UNES PARAULES
TTITLE6=SUAU
TTITLE7=EL MEU AMIC ANGLES
TTITLE8=MALLORQUI
TTITLE9=ELLA ES VA CANSAR
TTITLE10=CARTA DE MARIA GLORIA
TTITLE11=QUAN ES PON ES SOL DINS L'ILLA
EXTD=YEAR: 1998
EXTT0=
EXTT1=
EXTT2=
EXTT3=
EXTT4=
EXTT5=
EXTT6=
EXTT7=
EXTT8=
EXTT9=
EXTT10=
EXTT11=
PLAYORDER=
